<svg width="156" height="32" viewBox="0 0 156 32" fill="none" xmlns="http://www.w3.org/2000/svg">
<path d="M0 20.8821H156V32H0V20.8821Z" fill="#E7EDFD"/>
<path d="M18.081 3.52296H24.7353V27.2352H18.081V3.52296ZM9.00688 27.2352H2.35254V3.52296H9.00688V27.2352ZM18.5515 17.9874H8.53637V12.432H18.5515V17.9874Z" fill="#1A1A1A"/>
<path d="M38.2679 27.5401C36.2739 27.5401 34.5039 27.1336 32.9579 26.3206C31.412 25.5076 30.1909 24.3897 29.2947 22.967C28.4209 21.5217 27.984 19.8731 27.984 18.0213C27.984 16.1695 28.4209 14.5322 29.2947 13.1095C30.1909 11.6867 31.412 10.5802 32.9579 9.78976C34.5039 8.97677 36.2739 8.57028 38.2679 8.57028C40.262 8.57028 42.032 8.97677 43.578 9.78976C45.1463 10.5802 46.3674 11.6867 47.2412 13.1095C48.115 14.5322 48.5519 16.1695 48.5519 18.0213C48.5519 19.8731 48.115 21.5217 47.2412 22.967C46.3674 24.3897 45.1463 25.5076 43.578 26.3206C42.032 27.1336 40.262 27.5401 38.2679 27.5401ZM38.2679 22.425C39.0073 22.425 39.6571 22.2556 40.2172 21.9169C40.7997 21.5781 41.259 21.0813 41.5951 20.4264C41.9312 19.7489 42.0992 18.9472 42.0992 18.0213C42.0992 17.0954 41.9312 16.3163 41.5951 15.6839C41.259 15.029 40.7997 14.5322 40.2172 14.1935C39.6571 13.8547 39.0073 13.6853 38.2679 13.6853C37.551 13.6853 36.9012 13.8547 36.3187 14.1935C35.7586 14.5322 35.2993 15.029 34.9408 15.6839C34.6047 16.3163 34.4367 17.0954 34.4367 18.0213C34.4367 18.9472 34.6047 19.7489 34.9408 20.4264C35.2993 21.0813 35.7586 21.5781 36.3187 21.9169C36.9012 22.2556 37.551 22.425 38.2679 22.425Z" fill="#1A1A1A"/>
<path d="M51.5099 27.2352V2.10023H57.8954V27.2352H51.5099Z" fill="#1A1A1A"/>
<path d="M62.0452 27.2352V8.87515H68.4306V27.2352H62.0452ZM65.2379 6.84267C64.0728 6.84267 63.1318 6.51522 62.4149 5.86031C61.6979 5.2054 61.3394 4.39241 61.3394 3.42134C61.3394 2.45026 61.6979 1.63727 62.4149 0.982363C63.1318 0.327454 64.0728 0 65.2379 0C66.403 0 67.344 0.316163 68.061 0.948489C68.7779 1.55823 69.1364 2.34864 69.1364 3.31971C69.1364 4.33595 68.7779 5.18282 68.061 5.86031C67.3664 6.51522 66.4254 6.84267 65.2379 6.84267Z" fill="#1A1A1A"/>
<path d="M80.5118 27.5401C78.8539 27.5401 77.3415 27.1561 75.9748 26.3883C74.6305 25.5979 73.555 24.5026 72.7485 23.1025C71.9419 21.6798 71.5386 19.986 71.5386 18.0213C71.5386 16.0792 71.9419 14.408 72.7485 13.0079C73.555 11.5851 74.6305 10.4898 75.9748 9.72201C77.3415 8.95419 78.8539 8.57028 80.5118 8.57028C82.0802 8.57028 83.4021 8.90902 84.4776 9.58652C85.5754 10.264 86.4044 11.3028 86.9645 12.703C87.5247 14.1031 87.8047 15.8759 87.8047 18.0213C87.8047 20.2119 87.5359 22.0072 86.9981 23.4074C86.4604 24.8075 85.6538 25.8463 84.5784 26.5238C83.5029 27.2013 82.1474 27.5401 80.5118 27.5401ZM81.8562 22.425C82.5731 22.425 83.2117 22.2556 83.7718 21.9169C84.3543 21.5781 84.8136 21.0813 85.1497 20.4264C85.4858 19.7489 85.6538 18.9472 85.6538 18.0213C85.6538 17.0954 85.4858 16.3163 85.1497 15.6839C84.8136 15.029 84.3543 14.5322 83.7718 14.1935C83.2117 13.8547 82.5731 13.6853 81.8562 13.6853C81.1168 13.6853 80.4558 13.8547 79.8733 14.1935C79.3132 14.5322 78.8651 15.029 78.529 15.6839C78.1929 16.3163 78.0249 17.0954 78.0249 18.0213C78.0249 18.9472 78.1929 19.7489 78.529 20.4264C78.8651 21.0813 79.3132 21.5781 79.8733 21.9169C80.4558 22.2556 81.1168 22.425 81.8562 22.425ZM85.8555 27.2352V24.0849L85.8891 18.0213L85.553 11.9577V2.10023H91.9385V27.2352H85.8555Z" fill="#C3225D"/>
<path d="M107.171 27.2352V23.8139L106.734 22.967V16.6663C106.734 15.6501 106.42 14.871 105.793 14.329C105.188 13.7644 104.213 13.4821 102.869 13.4821C101.995 13.4821 101.11 13.6289 100.214 13.9225C99.3179 14.1935 98.5562 14.5774 97.9288 15.0742L95.7779 10.7044C96.8085 10.0269 98.0408 9.50748 99.4748 9.14615C100.931 8.76223 102.376 8.57028 103.81 8.57028C106.768 8.57028 109.053 9.25906 110.666 10.6366C112.302 11.9916 113.12 14.1257 113.12 17.0389V27.2352H107.171ZM101.794 27.5401C100.337 27.5401 99.1051 27.2916 98.0968 26.7948C97.0886 26.298 96.3156 25.6205 95.7779 24.7623C95.2626 23.9042 95.0049 22.9444 95.0049 21.883C95.0049 20.7538 95.285 19.7828 95.8451 18.9698C96.4277 18.1342 97.3127 17.5019 98.5001 17.0728C99.6876 16.6211 101.222 16.3953 103.104 16.3953H107.406V19.7489H103.978C102.948 19.7489 102.219 19.9183 101.794 20.257C101.39 20.5958 101.189 21.0474 101.189 21.612C101.189 22.1766 101.402 22.6282 101.827 22.967C102.253 23.3057 102.836 23.4751 103.575 23.4751C104.269 23.4751 104.897 23.3057 105.457 22.967C106.039 22.6057 106.465 22.0637 106.734 21.341L107.608 23.7122C107.272 24.9769 106.611 25.9367 105.625 26.5916C104.662 27.2239 103.384 27.5401 101.794 27.5401Z" fill="#C3225D"/>
<path d="M116.209 27.2352V23.4412L126.426 11.5851L127.501 13.6515H116.444V8.87515H132.677V12.6352L122.427 24.5252L121.351 22.425H133.013V27.2352H116.209Z" fill="#C3225D"/>
<path d="M145.172 27.5401C143.021 27.5401 141.139 27.1336 139.526 26.3206C137.936 25.485 136.692 24.3558 135.796 22.9331C134.922 21.4878 134.485 19.8505 134.485 18.0213C134.485 16.1921 134.911 14.5661 135.762 13.1434C136.636 11.698 137.835 10.5802 139.358 9.78976C140.882 8.97677 142.596 8.57028 144.5 8.57028C146.293 8.57028 147.928 8.9429 149.407 9.68814C150.886 10.4108 152.062 11.4835 152.936 12.9062C153.81 14.329 154.246 16.0566 154.246 18.089C154.246 18.3149 154.235 18.5746 154.213 18.8682C154.19 19.1617 154.168 19.4327 154.146 19.6812H139.728V16.2937H150.751L148.332 17.2422C148.354 16.4066 148.197 15.6839 147.861 15.0742C147.547 14.4645 147.099 13.9902 146.517 13.6515C145.957 13.3127 145.296 13.1434 144.534 13.1434C143.772 13.1434 143.1 13.3127 142.517 13.6515C141.957 13.9902 141.52 14.4758 141.207 15.1081C140.893 15.7178 140.736 16.4405 140.736 17.2761V18.2584C140.736 19.1617 140.915 19.9409 141.274 20.5958C141.655 21.2507 142.192 21.7588 142.887 22.1201C143.582 22.4589 144.411 22.6282 145.374 22.6282C146.27 22.6282 147.032 22.504 147.659 22.2556C148.309 21.9846 148.948 21.5781 149.575 21.0361L152.936 24.5591C152.062 25.5302 150.987 26.2754 149.709 26.7948C148.432 27.2916 146.92 27.5401 145.172 27.5401Z" fill="#C3225D"/>
</svg>
