<svg width="153" height="28" viewBox="0 0 153 28" fill="none" xmlns="http://www.w3.org/2000/svg">
<path d="M16.081 3.52296H22.7353V27.2352H16.081V3.52296ZM7.00688 27.2352H0.352539V3.52296H7.00688V27.2352ZM16.5515 17.9874H6.53637V12.432H16.5515V17.9874Z" fill="#E7EDFD"/>
<path d="M36.2679 27.5401C34.2739 27.5401 32.5039 27.1336 30.9579 26.3206C29.412 25.5076 28.1909 24.3897 27.2947 22.967C26.4209 21.5217 25.984 19.8731 25.984 18.0213C25.984 16.1695 26.4209 14.5322 27.2947 13.1095C28.1909 11.6867 29.412 10.5802 30.9579 9.78976C32.5039 8.97677 34.2739 8.57028 36.2679 8.57028C38.262 8.57028 40.032 8.97677 41.578 9.78976C43.1463 10.5802 44.3674 11.6867 45.2412 13.1095C46.115 14.5322 46.5519 16.1695 46.5519 18.0213C46.5519 19.8731 46.115 21.5217 45.2412 22.967C44.3674 24.3897 43.1463 25.5076 41.578 26.3206C40.032 27.1336 38.262 27.5401 36.2679 27.5401ZM36.2679 22.425C37.0073 22.425 37.6571 22.2556 38.2172 21.9169C38.7997 21.5781 39.259 21.0813 39.5951 20.4264C39.9312 19.7489 40.0992 18.9472 40.0992 18.0213C40.0992 17.0954 39.9312 16.3163 39.5951 15.6839C39.259 15.029 38.7997 14.5322 38.2172 14.1935C37.6571 13.8547 37.0073 13.6853 36.2679 13.6853C35.551 13.6853 34.9012 13.8547 34.3187 14.1935C33.7586 14.5322 33.2993 15.029 32.9408 15.6839C32.6047 16.3163 32.4367 17.0954 32.4367 18.0213C32.4367 18.9472 32.6047 19.7489 32.9408 20.4264C33.2993 21.0813 33.7586 21.5781 34.3187 21.9169C34.9012 22.2556 35.551 22.425 36.2679 22.425Z" fill="#E7EDFD"/>
<path d="M49.5099 27.2352V2.10023H55.8954V27.2352H49.5099Z" fill="#E7EDFD"/>
<path d="M60.0452 27.2352V8.87515H66.4306V27.2352H60.0452ZM63.2379 6.84267C62.0728 6.84267 61.1318 6.51522 60.4149 5.86031C59.6979 5.2054 59.3394 4.39241 59.3394 3.42134C59.3394 2.45026 59.6979 1.63727 60.4149 0.982363C61.1318 0.327455 62.0728 0 63.2379 0C64.403 0 65.344 0.316163 66.061 0.948489C66.7779 1.55823 67.1364 2.34864 67.1364 3.31971C67.1364 4.33595 66.7779 5.18282 66.061 5.86031C65.3664 6.51522 64.4254 6.84267 63.2379 6.84267Z" fill="#E7EDFD"/>
<path d="M78.5118 27.5401C76.8539 27.5401 75.3415 27.1562 73.9748 26.3883C72.6305 25.5979 71.555 24.5026 70.7484 23.1025C69.9419 21.6798 69.5386 19.986 69.5386 18.0213C69.5386 16.0792 69.9419 14.408 70.7484 13.0079C71.555 11.5851 72.6305 10.4898 73.9748 9.72202C75.3415 8.95419 76.8539 8.57028 78.5118 8.57028C80.0802 8.57028 81.4021 8.90903 82.4776 9.58652C83.5754 10.264 84.4044 11.3028 84.9645 12.703C85.5247 14.1031 85.8047 15.8759 85.8047 18.0213C85.8047 20.2119 85.5359 22.0072 84.9981 23.4074C84.4604 24.8075 83.6538 25.8463 82.5784 26.5238C81.5029 27.2013 80.1474 27.5401 78.5118 27.5401ZM79.8561 22.425C80.5731 22.425 81.2117 22.2556 81.7718 21.9169C82.3543 21.5781 82.8136 21.0813 83.1497 20.4264C83.4858 19.7489 83.6538 18.9472 83.6538 18.0213C83.6538 17.0954 83.4858 16.3163 83.1497 15.6839C82.8136 15.029 82.3543 14.5322 81.7718 14.1935C81.2117 13.8547 80.5731 13.6853 79.8561 13.6853C79.1168 13.6853 78.4558 13.8547 77.8733 14.1935C77.3132 14.5322 76.8651 15.029 76.529 15.6839C76.1929 16.3163 76.0249 17.0954 76.0249 18.0213C76.0249 18.9472 76.1929 19.7489 76.529 20.4264C76.8651 21.0813 77.3132 21.5781 77.8733 21.9169C78.4558 22.2556 79.1168 22.425 79.8561 22.425ZM83.8555 27.2352V24.0849L83.8891 18.0213L83.553 11.9577V2.10023H89.9385V27.2352H83.8555Z" fill="#E7EDFD"/>
<path d="M105.171 27.2352V23.8139L104.734 22.967V16.6663C104.734 15.6501 104.42 14.871 103.793 14.329C103.188 13.7644 102.213 13.4821 100.869 13.4821C99.9953 13.4821 99.1103 13.6289 98.2141 13.9225C97.3179 14.1935 96.5561 14.5774 95.9288 15.0742L93.7779 10.7044C94.8085 10.0269 96.0408 9.50748 97.4748 9.14615C98.9311 8.76223 100.376 8.57028 101.81 8.57028C104.768 8.57028 107.053 9.25906 108.666 10.6366C110.302 11.9916 111.12 14.1257 111.12 17.0389V27.2352H105.171ZM99.7937 27.5401C98.3374 27.5401 97.1051 27.2917 96.0968 26.7948C95.0886 26.298 94.3156 25.6205 93.7779 24.7623C93.2626 23.9042 93.0049 22.9444 93.0049 21.883C93.0049 20.7538 93.285 19.7828 93.8451 18.9698C94.4277 18.1342 95.3127 17.5019 96.5001 17.0728C97.6876 16.6211 99.2224 16.3953 101.104 16.3953H105.406V19.7489H101.978C100.948 19.7489 100.219 19.9183 99.7937 20.257C99.3904 20.5958 99.1888 21.0474 99.1888 21.612C99.1888 22.1766 99.4016 22.6282 99.8273 22.967C100.253 23.3057 100.836 23.4751 101.575 23.4751C102.269 23.4751 102.897 23.3057 103.457 22.967C104.039 22.6057 104.465 22.0637 104.734 21.341L105.608 23.7122C105.272 24.9769 104.611 25.9367 103.625 26.5916C102.662 27.2239 101.384 27.5401 99.7937 27.5401Z" fill="#E7EDFD"/>
<path d="M114.209 27.2352V23.4412L124.426 11.5851L125.501 13.6515H114.444V8.87515H130.677V12.6352L120.426 24.5252L119.351 22.425H131.013V27.2352H114.209Z" fill="#E7EDFD"/>
<path d="M143.172 27.5401C141.021 27.5401 139.139 27.1336 137.526 26.3206C135.936 25.485 134.692 24.3559 133.796 22.9331C132.922 21.4878 132.485 19.8505 132.485 18.0213C132.485 16.1921 132.911 14.5661 133.762 13.1434C134.636 11.698 135.835 10.5802 137.358 9.78976C138.882 8.97677 140.596 8.57028 142.5 8.57028C144.293 8.57028 145.928 8.9429 147.407 9.68814C148.886 10.4108 150.062 11.4835 150.936 12.9062C151.81 14.329 152.246 16.0566 152.246 18.089C152.246 18.3149 152.235 18.5746 152.213 18.8682C152.19 19.1617 152.168 19.4327 152.146 19.6812H137.728V16.2937H148.751L146.332 17.2422C146.354 16.4066 146.197 15.6839 145.861 15.0742C145.547 14.4645 145.099 13.9902 144.517 13.6515C143.957 13.3127 143.296 13.1434 142.534 13.1434C141.772 13.1434 141.1 13.3127 140.517 13.6515C139.957 13.9902 139.52 14.4758 139.207 15.1081C138.893 15.7178 138.736 16.4405 138.736 17.2761V18.2584C138.736 19.1617 138.915 19.9409 139.274 20.5958C139.655 21.2507 140.192 21.7588 140.887 22.1201C141.582 22.4589 142.411 22.6282 143.374 22.6282C144.27 22.6282 145.032 22.504 145.659 22.2556C146.309 21.9846 146.948 21.5781 147.575 21.0361L150.936 24.5591C150.062 25.5302 148.987 26.2754 147.709 26.7948C146.432 27.2917 144.92 27.5401 143.172 27.5401Z" fill="#E7EDFD"/>
</svg>
